<svg xmlns="http://www.w3.org/2000/svg" width="44.562" height="59.91" viewBox="0 0 44.562 59.91">
  <path id="Icon" class="cls-1" d="M820.405,1790.26H809.4v-1.62a1.167,1.167,0,0,0-1.169-1.17h-3.963a5.118,5.118,0,0,0-9.691,0h-4.229a1.167,1.167,0,0,0-1.169,1.17v1.62H778.168a1.167,1.167,0,0,0-1.168,1.17v51.3a1.167,1.167,0,0,0,1.168,1.17h42.237a1.167,1.167,0,0,0,1.169-1.17v-51.3A1.168,1.168,0,0,0,820.405,1790.26Zm-28.892-.45H795.5a1.169,1.169,0,0,0,1.16-1.03,2.783,2.783,0,0,1,5.523,0,1.169,1.169,0,0,0,1.16,1.03h3.719v3.24H791.513v-3.24Zm27.724,51.75h-39.9V1792.6h9.84v1.62a1.167,1.167,0,0,0,1.169,1.17h17.883a1.167,1.167,0,0,0,1.169-1.17v-1.62h9.84v48.96Zm-19.951-41.23a11.085,11.085,0,1,0,11.072,11.08A11.088,11.088,0,0,0,799.286,1800.33Zm8.654,9.91h-7.485v-7.49A8.754,8.754,0,0,1,807.94,1810.24Zm-5.833,2.34h5.833a8.716,8.716,0,0,1-1.71,4.13Zm-11.555-1.17a8.75,8.75,0,0,1,7.566-8.66v8.66a1.179,1.179,0,0,0,.342.83l6.117,6.13A8.729,8.729,0,0,1,790.552,1811.41Zm19.631,17.24a1.167,1.167,0,0,1-1.169,1.17H789.559a1.17,1.17,0,0,1,0-2.34h19.455A1.174,1.174,0,0,1,810.183,1828.65Zm0,5.35a1.167,1.167,0,0,1-1.169,1.17H789.559a1.17,1.17,0,0,1,0-2.34h19.455A1.174,1.174,0,0,1,810.183,1834Z" transform="translate(-777 -1784)"/>
</svg>
