<svg xmlns="http://www.w3.org/2000/svg" width="63.812" height="60.09" viewBox="0 0 63.812 60.09">
  <defs>
    <style>
      .cls-1 {
        fill: #eba800;
        fill-rule: evenodd;
      }
    </style>
  </defs>
  <path id="Icon" class="cls-1" d="M508.017,1784H463.025a3.808,3.808,0,0,0-3.8,3.8v7.43H451.8a3.81,3.81,0,0,0-3.8,3.81v32.52a3.81,3.81,0,0,0,3.8,3.81h7.421v7.46a1.25,1.25,0,0,0,.732,1.14,1.323,1.323,0,0,0,.514.11,1.267,1.267,0,0,0,.823-0.31l9.557-8.4H496.8a3.81,3.81,0,0,0,3.8-3.81v-8.34h7.421a3.811,3.811,0,0,0,3.8-3.81V1787.8a3.808,3.808,0,0,0-3.8-3.8h0Zm-9.914,47.56a1.306,1.306,0,0,1-1.308,1.31H470.379a1.243,1.243,0,0,0-.822.31l-7.841,6.9v-5.96a1.249,1.249,0,0,0-1.247-1.25H451.8a1.306,1.306,0,0,1-1.309-1.31v-32.52a1.306,1.306,0,0,1,1.309-1.31H496.8a1.306,1.306,0,0,1,1.308,1.31v32.52Zm11.223-12.15a1.312,1.312,0,0,1-1.309,1.31H500.6v-21.68a3.81,3.81,0,0,0-3.8-3.81H461.716v-7.43a1.312,1.312,0,0,1,1.309-1.31h44.992a1.312,1.312,0,0,1,1.309,1.31v31.61Zm-46.372-7.29h-5.44a1.248,1.248,0,0,0-1.246,1.25v14.26a1.248,1.248,0,0,0,1.246,1.25h5.44a1.249,1.249,0,0,0,1.247-1.25v-14.26a1.249,1.249,0,0,0-1.247-1.25h0Zm-1.246,14.27h-2.947v-11.78h2.947v11.78Zm20-17.77h-5.44a1.248,1.248,0,0,0-1.246,1.25v17.76a1.248,1.248,0,0,0,1.246,1.25h5.44a1.248,1.248,0,0,0,1.246-1.25v-17.76A1.248,1.248,0,0,0,481.706,1808.62Zm-1.246,17.77h-2.947v-15.27h2.947v15.27Zm-8.13-21.03h-5.44a1.246,1.246,0,0,0-1.246,1.24v21.03a1.248,1.248,0,0,0,1.246,1.25h5.44a1.249,1.249,0,0,0,1.247-1.25V1806.6A1.246,1.246,0,0,0,472.33,1805.36Zm-1.246,21.03h-2.947v-18.54h2.947v18.54Zm20-24.67h-5.44a1.248,1.248,0,0,0-1.246,1.25v24.67a1.246,1.246,0,0,0,1.246,1.24h5.44a1.246,1.246,0,0,0,1.246-1.24v-24.67a1.248,1.248,0,0,0-1.246-1.25h0Zm-1.247,24.67h-2.947v-22.18h2.948v22.18h0Z" transform="translate(-448 -1784)"/>
</svg>
