<svg xmlns="http://www.w3.org/2000/svg" width="29.88" height="29.906" viewBox="0 0 29.88 29.906">
  <defs>
    <style>
      .cls-1 {
        fill: #eab800;
        fill-rule: evenodd;
      }
    </style>
  </defs>
  <path id="call" class="cls-1" d="M1399.34,55.286a17.044,17.044,0,0,1-5.36-.853,2.308,2.308,0,0,0-2.34.494l-3.39,2.564a18.937,18.937,0,0,1-8.44-8.436l2.49-3.314a2.378,2.378,0,0,0,.59-2.408,17.078,17.078,0,0,1-.86-5.373,2.364,2.364,0,0,0-2.36-2.36h-5.51a2.364,2.364,0,0,0-2.36,2.36,27.569,27.569,0,0,0,27.54,27.54,2.364,2.364,0,0,0,2.36-2.361V57.647A2.364,2.364,0,0,0,1399.34,55.286Z" transform="translate(-1371.81 -35.594)"/>
</svg>
