<svg xmlns="http://www.w3.org/2000/svg" width="58.19" height="60.37" viewBox="0 0 58.19 60.37">
  <path id="Icon" class="cls-1" d="M1734.89,1803.7a1.178,1.178,0,0,1,.18-1.66l13.21-10.55a1.186,1.186,0,0,1,1.29-.12l15.17,8.11,15.17-12.37-3.13-.29a1.18,1.18,0,1,1,.22-2.35l6.1,0.56a1.2,1.2,0,0,1,.86.51,1.165,1.165,0,0,1,.16.99l-1.72,5.98a1.176,1.176,0,1,1-2.26-.65l0.71-2.47-15.22,12.41a1.2,1.2,0,0,1-1.31.13l-15.18-8.11-12.59,10.06a1.182,1.182,0,0,1-1.66-.18h0Zm7.42,13.91v26.05a1.182,1.182,0,0,1-1.18,1.18h-9.95a1.182,1.182,0,0,1-1.18-1.18v-26.05a1.182,1.182,0,0,1,1.18-1.18h9.95A1.182,1.182,0,0,1,1742.31,1817.61Zm-2.36,1.18h-7.59v23.69h7.59v-23.69Zm17.65-13.52v38.39a1.182,1.182,0,0,1-1.18,1.18h-9.95a1.182,1.182,0,0,1-1.18-1.18v-38.39a1.182,1.182,0,0,1,1.18-1.18h9.95a1.182,1.182,0,0,1,1.18,1.18h0Zm-2.36,1.18h-7.59v36.03h7.59v-36.03Zm17.65,4.78v32.43a1.176,1.176,0,0,1-1.18,1.18h-9.95a1.182,1.182,0,0,1-1.18-1.18v-32.43a1.182,1.182,0,0,1,1.18-1.18h9.95A1.176,1.176,0,0,1,1772.89,1811.23Zm-2.36,1.18h-7.59v30.07h7.59v-30.07Zm17.66-13.79v45.04a1.182,1.182,0,0,1-1.18,1.18h-9.95a1.176,1.176,0,0,1-1.18-1.18v-45.04a1.176,1.176,0,0,1,1.18-1.18h9.95A1.182,1.182,0,0,1,1788.19,1798.62Zm-2.36,1.18h-7.59v42.68h7.59V1799.8Z" transform="translate(-1730 -1784.47)"/>
</svg>
