<svg xmlns="http://www.w3.org/2000/svg" width="59.69" height="59.69" viewBox="0 0 59.69 59.69">
  <path id="Icon" class="cls-1" d="M1468.34,1791.29h-5.84l-0.06-5.91a1.4,1.4,0,0,0-1.4-1.38h-0.01a1.4,1.4,0,0,0-1.39,1.41l0.08,6.7-23.31,23.28a1.4,1.4,0,0,0,1.96,2l0.02-.02,4.89-4.88a7.059,7.059,0,1,1-5.88-3.15,1.4,1.4,0,0,0,0-2.8,9.85,9.85,0,1,0,7.88,3.94l3.05-3.04a14.11,14.11,0,0,1-10.93,23.05h0a14.11,14.11,0,1,1,4.98-27.33,1.395,1.395,0,1,0,1.01-2.6,0.037,0.037,0,0,0-.03-0.01,16.569,16.569,0,0,0-4.56-1.02v-7.57a24.541,24.541,0,0,1,11.3,3.5,1.394,1.394,0,0,0,1.45-2.38,27.254,27.254,0,1,0,6.1,5.04l4.05-4.04h6.64a1.4,1.4,0,0,0,0-2.79h0Zm-20,37.99,5.35,5.34a24.355,24.355,0,0,1-14.89,6.17v-7.56a16.886,16.886,0,0,0,9.54-3.95h0Zm-12.34,3.95v7.56a24.352,24.352,0,0,1-14.88-6.17l5.34-5.34a16.778,16.778,0,0,0,9.54,3.95h0Zm-9.53-29.75-5.35-5.34a24.422,24.422,0,0,1,14.88-6.18v7.57a16.886,16.886,0,0,0-9.53,3.95h0Zm-7.33-3.37,5.35,5.35a16.84,16.84,0,0,0-3.96,9.52h-7.57A24.4,24.4,0,0,1,1419.14,1800.11Zm-6.18,17.67h7.57a16.8,16.8,0,0,0,3.96,9.53l-5.35,5.34a24.4,24.4,0,0,1-6.18-14.87h0Zm42.7,14.87-5.35-5.35a16.771,16.771,0,0,0,3.96-9.52h7.57a24.336,24.336,0,0,1-6.18,14.87h0Zm6.18-17.67h-7.57a16.886,16.886,0,0,0-3.95-9.53l5.35-5.35A24.294,24.294,0,0,1,1461.84,1814.98Z" transform="translate(-1410.06 -1784)"/>
</svg>
