<svg xmlns="http://www.w3.org/2000/svg" width="68.47" height="60.16" viewBox="0 0 68.47 60.16">
  <defs>
    <style>
      .cls-1 {
        fill: #fff;
        fill-rule: evenodd;
      }
    </style>
  </defs>
  <path class="cls-1" d="M1147.23,1817.09v-11.93l0.54-.07a1.338,1.338,0,0,0,1.15-1.33v-10.39a1.34,1.34,0,0,0-1.34-1.34h-16.87v-3.61a3.425,3.425,0,0,0-3.42-3.42h-19.7a3.418,3.418,0,0,0-3.42,3.42v3.61h-16.83a1.34,1.34,0,0,0-1.34,1.34v10.39a1.338,1.338,0,0,0,1.15,1.33l0.54,0.07v24.8a4.549,4.549,0,0,0,4.54,4.54h32.59A15.16,15.16,0,1,0,1147.23,1817.09Zm-40.39-28.67a0.747,0.747,0,0,1,.75-0.74h19.7a0.738,0.738,0,0,1,.74.74v3.61h-21.19v-3.61Zm-18.17,6.29h57.58v7.89l-24.18,3.37v-2.52a2.33,2.33,0,0,0-2.32-2.33h-4.58a2.33,2.33,0,0,0-2.32,2.33v2.52l-24.18-3.37v-7.89Zm30.73,9.09v9.7h-3.88v-9.7h3.88Zm-27.17,28.02a1.856,1.856,0,0,1-1.86-1.86v-24.42l22.48,3.13v5.17a2.324,2.324,0,0,0,2.32,2.33h4.58a2.324,2.324,0,0,0,2.32-2.33v-5.17l22.48-3.13v10.24a15.156,15.156,0,0,0-20.41,14.22,15.471,15.471,0,0,0,.11,1.82h-32.02Zm47.07,10.67a12.485,12.485,0,1,1,12.48-12.49A12.5,12.5,0,0,1,1139.3,1842.49Zm5.05-9.11a4.737,4.737,0,0,1-3.69,4.49l0.02,0.72a1.332,1.332,0,0,1-1.3,1.37h-0.04a1.323,1.323,0,0,1-1.33-1.3l-0.02-.77a5.8,5.8,0,0,1-2.72-1.64,1.341,1.341,0,0,1,1.84-1.95,2.764,2.764,0,0,0,2.19,1.07,2.018,2.018,0,1,0,0-3.97,4.867,4.867,0,0,1-5.05-4.65,4.737,4.737,0,0,1,3.69-4.49l-0.02-.85a1.335,1.335,0,1,1,2.67-.06l0.02,0.94a5.569,5.569,0,0,1,3.1,1.94,1.335,1.335,0,0,1-2.23,1.47,3.728,3.728,0,0,0-2.18-.93,2.014,2.014,0,1,0,0,3.96,4.867,4.867,0,0,1,5.05,4.65h0Z" transform="translate(-1086 -1785)"/>
</svg>
