<svg xmlns="http://www.w3.org/2000/svg" width="60.031" height="59.97" viewBox="0 0 60.031 59.97">
  <defs>
    <style>
      .cls-1 {
        fill: #eba800;
        fill-rule: evenodd;
      }
    </style>
  </defs>
  <path id="Icon" class="cls-1" d="M185.809,1792.37h-4.256a1.17,1.17,0,1,0,0,2.34h4.256a1.873,1.873,0,0,1,1.87,1.87v28.91H132.345v-27.81a2.971,2.971,0,0,1,2.968-2.97h7.553a1.17,1.17,0,1,0,0-2.34h-7.553a5.316,5.316,0,0,0-5.313,5.31v33.07a5.316,5.316,0,0,0,5.313,5.31h16.464a20.171,20.171,0,0,1-.347,6.03h-6.6a1.175,1.175,0,0,0,0,2.35H175.2a1.175,1.175,0,0,0,0-2.35h-6.669a19.366,19.366,0,0,1-.413-6.03H184.71a5.316,5.316,0,0,0,5.313-5.31v-34.17a4.217,4.217,0,0,0-4.214-4.21h0Zm-19.673,49.72h-12.32a22.644,22.644,0,0,0,.319-6.03h11.624a21.763,21.763,0,0,0,.377,6.03h0Zm18.574-8.37h-49.4a2.971,2.971,0,0,1-2.968-2.97v-2.92h55.334v2.92A2.971,2.971,0,0,1,184.71,1833.72ZM146.639,1796a1.164,1.164,0,0,1,.183-1.64l7.345-5.87a1.18,1.18,0,0,1,1.285-.12l8.139,4.35,7.192-5.87-0.484-.04a1.175,1.175,0,0,1,.215-2.34l3.394,0.31a1.2,1.2,0,0,1,.861.51,1.167,1.167,0,0,1,.159.98l-0.957,3.33a1.173,1.173,0,0,1-2.292-.46l-7.211,5.89a1.194,1.194,0,0,1-1.294.12l-8.146-4.35-6.741,5.39a1.18,1.18,0,0,1-.732.25,1.167,1.167,0,0,1-.916-0.44h0Zm-2.832,7.17a1.169,1.169,0,0,0-1.172,1.17v14.49a1.169,1.169,0,0,0,1.172,1.17h5.535a1.169,1.169,0,0,0,1.173-1.17v-14.49a1.169,1.169,0,0,0-1.173-1.17h-5.535Zm4.363,14.49h-3.191v-12.15h3.191v12.15Zm4.595-21.36a1.169,1.169,0,0,0-1.172,1.17v21.36a1.169,1.169,0,0,0,1.172,1.17H158.3a1.169,1.169,0,0,0,1.173-1.17v-21.36a1.169,1.169,0,0,0-1.173-1.17h-5.535Zm4.363,21.36h-3.191v-19.02h3.191v19.02Zm4.6-18.04a1.169,1.169,0,0,0-1.172,1.17v18.04a1.169,1.169,0,0,0,1.172,1.17h5.535a1.169,1.169,0,0,0,1.173-1.17v-18.04a1.169,1.169,0,0,0-1.173-1.17h-5.535Zm4.363,18.04H162.9v-15.7h3.191v15.7Zm3.423-23.89v25.06a1.169,1.169,0,0,0,1.172,1.17h5.535a1.169,1.169,0,0,0,1.173-1.17v-25.06a1.175,1.175,0,0,0-1.173-1.17h-5.535A1.175,1.175,0,0,0,169.509,1793.77Zm2.344,1.17h3.191v22.72h-3.191v-22.72Z" transform="translate(-130 -1784.47)"/>
</svg>
